<?xml version="1.0" standalone="no"?>
<!DOCTYPE svg PUBLIC "-//W3C//DTD SVG 20010904//EN"
 "http://www.w3.org/TR/2001/REC-SVG-20010904/DTD/svg10.dtd">
<svg version="1.0" xmlns="http://www.w3.org/2000/svg"
 width="1024.000000pt" height="1024.000000pt" viewBox="0 0 1024.000000 1024.000000"
 preserveAspectRatio="xMidYMid meet">
<metadata>
Created by potrace 1.16, written by Peter Selinger 2001-2019
</metadata>
<g transform="translate(0.000000,1024.000000) scale(0.100000,-0.100000)"
fill="#000000" stroke="none">
<path d="M4110 9448 c-28 -19 -39 -36 -53 -83 -29 -100 -58 -146 -122 -197
-32 -27 -69 -48 -82 -48 -13 0 -58 -7 -99 -16 -69 -14 -80 -14 -132 1 -31 9
-73 29 -92 43 -46 34 -100 93 -100 108 0 7 -14 24 -31 38 -36 30 -76 33 -122
9 -18 -9 -64 -26 -104 -39 -133 -42 -144 -58 -136 -180 6 -93 -3 -132 -52
-206 -26 -39 -52 -61 -122 -101 -77 -45 -96 -52 -155 -55 -80 -5 -145 14 -214
63 -37 26 -59 35 -89 35 -37 0 -51 -9 -142 -86 -57 -49 -107 -99 -114 -117
-13 -32 -15 -25 38 -162 19 -48 20 -115 3 -185 -9 -37 -28 -70 -72 -123 -100
-121 -213 -156 -363 -113 -47 14 -59 15 -87 3 -41 -17 -48 -26 -94 -113 -20
-38 -47 -90 -61 -115 -30 -58 -24 -87 29 -137 22 -20 55 -65 75 -100 30 -54
35 -72 36 -135 2 -109 -38 -212 -109 -276 -59 -54 -123 -81 -191 -81 -59 0
-109 -22 -126 -57 -8 -15 -18 -54 -21 -85 -4 -32 -11 -60 -16 -63 -5 -3 -11
-34 -15 -69 -10 -87 8 -120 83 -153 86 -38 135 -83 171 -157 28 -58 31 -74 31
-156 0 -82 -3 -99 -30 -156 -35 -73 -86 -119 -172 -157 -75 -33 -93 -66 -83
-151 3 -33 10 -65 15 -71 4 -5 13 -41 18 -78 6 -38 17 -76 24 -84 20 -24 73
-43 121 -43 65 0 131 -27 185 -75 41 -37 54 -58 87 -146 37 -99 38 -104 28
-165 -15 -83 -46 -143 -105 -199 -42 -42 -48 -52 -48 -89 0 -30 9 -56 32 -92
17 -27 42 -72 55 -100 41 -90 85 -113 168 -89 88 26 162 23 237 -8 53 -23 75
-40 124 -98 64 -76 83 -124 86 -219 0 -30 -6 -73 -15 -95 -53 -135 -51 -130
-38 -162 7 -18 57 -68 114 -117 91 -77 105 -86 142 -86 30 0 52 9 89 35 73 51
134 69 225 62 64 -4 86 -11 138 -41 34 -20 65 -36 70 -36 11 0 85 -116 101
-160 9 -24 12 -63 9 -120 -4 -60 -1 -92 8 -111 15 -29 56 -59 80 -59 8 0 34
-9 58 -19 159 -73 201 -69 258 25 41 66 107 117 183 139 53 15 70 16 150 5 79
-11 97 -18 136 -48 25 -19 56 -47 68 -61 33 -36 72 -120 72 -155 0 -21 11 -40
41 -68 l41 -39 137 3 c174 4 197 18 216 129 10 58 46 110 116 169 64 53 70 56
152 69 70 10 96 10 143 0 72 -16 139 -60 180 -119 66 -93 80 -103 132 -98 26
3 77 19 115 37 37 17 74 31 83 31 30 0 76 32 89 63 9 21 11 56 8 109 -11 146
37 232 172 307 68 38 89 45 152 49 85 5 141 -11 214 -64 34 -25 57 -34 85 -34
49 1 61 8 167 99 114 98 124 124 77 208 -39 68 -50 168 -28 241 21 68 131 195
198 227 65 32 156 36 240 11 38 -11 58 -13 78 -5 29 11 72 47 72 61 0 4 23 45
51 90 34 54 54 97 57 124 4 39 1 45 -61 112 -109 119 -120 188 -57 359 32 87
46 113 77 140 57 48 96 64 185 73 70 7 84 12 109 37 26 25 32 44 49 143 33
193 30 208 -65 250 -74 33 -139 88 -166 141 -16 32 -19 60 -19 169 0 112 3
137 20 171 31 61 92 114 160 139 44 16 65 31 75 51 19 37 19 61 -5 199 -17 99
-23 118 -49 143 -25 25 -39 30 -109 37 -148 15 -204 60 -258 205 -66 179 -57
247 53 366 62 68 65 74 61 113 -3 27 -23 70 -57 124 -28 45 -51 86 -51 90 0
14 -43 50 -72 61 -20 8 -40 6 -78 -5 -75 -22 -175 -20 -230 5 -59 26 -194 183
-211 245 -19 70 -7 163 31 229 47 84 37 110 -77 208 -106 91 -118 98 -167 99
-28 0 -51 -9 -85 -34 -71 -51 -128 -69 -208 -64 -60 3 -78 9 -161 57 -139 79
-178 148 -169 295 5 90 -8 135 -46 154 -12 6 -51 21 -87 33 -36 12 -82 30
-102 40 -66 33 -133 16 -163 -41 -41 -79 -120 -139 -210 -159 -41 -9 -67 -8
-148 7 -91 18 -101 22 -155 69 -62 55 -97 107 -107 162 -19 110 -43 125 -210
129 -123 3 -132 2 -165 -20z m218 -640 l3 -48 52 0 c264 -1 738 -143 1022
-306 386 -222 642 -463 861 -812 l62 -97 86 -3 86 -3 46 -91 46 -92 -26 -23
c-20 -17 -40 -23 -72 -23 -24 0 -44 -3 -44 -6 0 -3 16 -52 35 -109 20 -57 40
-141 46 -188 14 -117 8 -1389 -7 -1408 -6 -8 -23 -45 -38 -84 -48 -124 -89
-217 -154 -347 l-63 -128 17 -32 c9 -18 19 -62 22 -98 4 -57 2 -67 -17 -84
l-21 -19 0 61 c0 70 -35 175 -76 230 -40 52 -113 99 -182 118 -53 15 -75 16
-133 7 -171 -27 -286 -141 -305 -304 -17 -147 80 -311 223 -376 52 -24 168
-47 185 -37 4 3 8 2 8 -3 0 -4 -18 -23 -40 -41 l-39 -33 -221 1 -220 1 -78
-71 c-42 -40 -117 -104 -167 -144 -97 -78 -275 -200 -276 -188 0 4 0 68 1 142
l1 135 66 67 c66 66 68 67 117 66 70 -2 129 30 156 82 37 73 19 169 -42 213
-38 28 -125 34 -172 12 -61 -29 -81 -67 -82 -159 l0 -80 -75 -68 c-40 -37 -77
-68 -81 -68 -5 0 -8 -95 -8 -211 l0 -211 -120 3 c-136 4 -155 -5 -155 -64 l0
-32 -80 -8 c-81 -8 -380 -2 -468 9 -41 6 -47 9 -41 26 3 10 -2 30 -10 43 -16
24 -20 25 -136 25 l-120 0 0 209 0 208 -57 45 c-32 24 -102 75 -155 113 -84
58 -98 72 -98 96 0 38 -41 69 -92 69 -47 0 -98 -43 -98 -83 0 -38 41 -90 80
-102 30 -9 116 -64 235 -152 16 -13 40 -28 53 -34 21 -12 22 -17 22 -161 l0
-150 -82 58 c-111 77 -210 156 -343 271 l-111 95 -195 -1 -195 -2 -44 39 -44
39 52 6 c111 13 236 110 290 225 36 77 39 211 5 284 -28 62 -100 138 -156 166
-140 70 -324 37 -428 -75 -41 -45 -99 -153 -99 -185 0 -10 -4 -18 -10 -18 -13
0 -13 44 1 90 10 33 8 41 -20 87 -45 73 -143 282 -184 393 -56 153 -57 140 3
140 47 0 57 4 100 43 26 24 78 76 114 115 l66 72 0 135 0 135 80 0 80 0 0
-221 c0 -206 -1 -223 -20 -246 -30 -38 -28 -112 4 -142 44 -42 122 -27 151 29
21 40 19 61 -10 104 -25 37 -25 39 -25 256 l0 220 34 0 c36 0 46 12 46 58 0
38 -10 50 -45 54 l-30 3 -2 209 -1 208 -42 43 -43 43 -88 -5 -89 -6 0 78 0 78
-57 61 c-32 34 -64 65 -72 70 -7 5 -56 8 -107 7 -52 -1 -94 2 -94 7 0 15 47
165 69 220 12 29 21 55 21 57 0 3 -20 5 -45 5 -34 0 -45 4 -45 15 0 9 23 60
50 115 l50 100 48 0 47 0 70 108 c196 299 419 527 695 710 336 223 772 374
1152 399 l98 6 0 49 0 49 68 -3 67 -3 3 -47z m2366 -1809 c43 -20 46 -59 46
-656 l0 -558 -24 -90 c-58 -211 -55 -243 -55 573 -1 408 1 742 4 742 2 0 15
-5 29 -11z m-4552 -106 c46 -39 48 -41 48 -105 l0 -58 -191 0 -191 0 7 48 c4
26 9 50 12 55 2 4 29 7 59 7 l54 0 0 34 c0 40 7 42 107 45 53 1 66 -3 95 -26z
m48 -468 l0 -195 -140 0 -140 0 0 145 0 145 -66 0 c-64 0 -66 1 -60 23 3 12 6
34 6 50 l0 27 200 0 200 0 0 -195z m280 0 l0 -195 -80 0 -80 0 0 195 0 195 80
0 80 0 0 -195z m-280 -420 l0 -125 -78 -80 -77 -80 -91 0 -91 0 -7 31 c-11 56
-9 59 35 59 l40 0 -3 53 -3 52 -51 3 c-51 3 -52 3 -58 40 -12 73 -12 73 49 66
l55 -7 0 51 0 51 138 4 c75 1 138 4 140 5 1 1 2 -54 2 -123z m541 -896 c76
-38 157 -167 126 -198 -20 -20 -32 -11 -55 39 -25 55 -94 114 -145 126 -31 6
-43 25 -33 50 7 19 50 12 107 -17z m3163 15 c11 -28 7 -34 -38 -53 -60 -26
-110 -73 -135 -126 -22 -47 -27 -50 -50 -36 -42 27 41 159 129 203 63 32 85
35 94 12z m-3219 -148 c68 -52 84 -137 40 -211 -29 -50 -75 -75 -140 -75 -57
0 -96 19 -132 67 -23 30 -28 46 -28 93 1 63 25 108 79 142 46 29 132 21 181
-16z m3356 11 c53 -36 79 -82 79 -142 0 -92 -65 -155 -158 -155 -59 0 -105 24
-137 71 -24 33 -27 46 -23 93 10 124 143 198 239 133z"/>
<path d="M4125 8602 c-272 -70 -445 -293 -445 -575 0 -246 173 -468 425 -543
92 -28 238 -23 340 10 198 64 347 234 391 446 37 182 -36 396 -183 530 -106
97 -206 137 -360 145 -75 4 -115 1 -168 -13z m227 -123 c84 -18 158 -59 224
-124 102 -100 141 -204 132 -350 -10 -156 -105 -294 -253 -366 -68 -33 -73
-34 -195 -34 -121 0 -127 1 -190 33 -288 145 -346 494 -120 723 104 105 254
149 402 118z"/>
<path d="M4143 8406 c-60 -19 -104 -49 -156 -105 -78 -84 -114 -183 -105 -295
17 -208 224 -373 424 -339 135 23 248 106 302 221 24 50 27 69 27 157 0 91 -3
105 -30 159 -39 77 -105 143 -181 180 -49 24 -74 30 -149 32 -58 3 -105 -1
-132 -10z m194 -205 c88 -41 127 -155 81 -241 -83 -154 -332 -95 -332 78 1
134 130 218 251 163z"/>
<path d="M2748 7985 c-48 -36 -127 -135 -158 -195 -41 -83 -52 -138 -48 -244
3 -90 7 -110 35 -167 38 -77 111 -152 193 -199 47 -27 63 -43 72 -70 15 -43
22 -701 11 -930 l-8 -155 -32 -3 c-29 -3 -32 -7 -37 -45 -13 -107 -28 -438
-22 -478 10 -67 48 -140 95 -182 54 -49 81 -60 165 -66 l70 -6 11 -46 c30
-115 112 -211 212 -249 54 -20 68 -20 966 -18 l912 3 55 26 c92 44 157 124
190 235 12 41 13 42 65 47 99 10 180 59 230 138 44 69 48 105 35 349 -15 300
-13 290 -54 290 l-33 0 -6 182 c-11 298 -8 805 6 878 l12 65 65 35 c242 131
306 417 149 660 -41 64 -150 180 -169 180 -6 0 -10 -94 -10 -250 l0 -250 -200
0 -200 0 0 250 c0 154 -4 250 -10 250 -20 0 -136 -120 -169 -174 -62 -103 -84
-179 -84 -286 0 -80 4 -105 27 -161 32 -78 108 -168 174 -206 70 -39 79 -50
91 -101 10 -45 22 -162 17 -162 -2 0 -19 15 -38 33 -19 17 -59 46 -89 62 l-54
30 -920 0 -920 0 -53 -28 c-29 -15 -71 -44 -94 -65 l-41 -37 7 104 c4 58 9
108 11 111 2 4 34 24 71 46 261 153 296 491 76 739 -40 44 -100 95 -113 95 -5
0 -9 -112 -9 -250 l0 -250 -201 0 -201 0 4 250 c1 138 0 250 -3 250 -3 0 -26
-16 -51 -35z m2392 -1075 c47 -13 106 -63 133 -113 l22 -42 3 -735 c2 -505 0
-751 -8 -786 -13 -60 -56 -117 -111 -144 -36 -19 -60 -20 -466 -20 -348 0
-423 3 -403 13 33 16 64 80 56 113 -8 31 -48 70 -81 78 -41 10 -94 -18 -111
-60 -20 -47 -11 -87 28 -119 l30 -25 -419 0 c-467 0 -468 1 -527 71 -58 69
-56 35 -56 851 0 722 1 755 20 796 23 51 61 88 115 113 38 18 86 19 890 19
521 0 864 -4 885 -10z m400 -625 c23 -135 42 -300 67 -583 l17 -192 -22 -45
c-23 -47 -54 -69 -115 -80 l-37 -7 0 409 0 409 30 89 c17 49 30 98 30 109 0
42 10 6 30 -109z m-2504 15 l28 -75 3 -424 3 -424 -37 6 c-77 13 -133 81 -133
160 0 101 94 847 106 835 1 -2 15 -37 30 -78z"/>
<path d="M3462 6769 c-26 -13 -55 -39 -70 -62 l-27 -41 0 -616 0 -616 27 -41
c51 -77 2 -73 870 -73 732 0 775 1 814 19 24 11 50 33 62 53 22 35 22 38 22
660 l0 625 -23 33 c-12 19 -38 43 -57 54 -34 21 -49 21 -805 24 l-770 2 -43
-21z m269 -89 c23 -13 25 -55 3 -64 -9 -3 -39 -6 -69 -6 -32 0 -57 -5 -64 -13
-7 -9 -12 -120 -13 -342 -3 -300 -5 -329 -20 -339 -13 -8 -23 -8 -35 0 -17 10
-18 40 -21 356 -2 340 -2 345 19 372 12 15 31 32 43 36 30 12 134 12 157 0z
m656 -232 c4 -7 10 -69 13 -138 l5 -125 128 -3 c126 -3 128 -3 137 -28 13 -34
13 -190 0 -215 -10 -17 -22 -19 -140 -19 l-130 0 0 -123 c0 -82 -4 -127 -12
-135 -8 -8 -50 -12 -125 -12 -101 0 -113 2 -123 19 -5 11 -10 72 -10 135 l0
116 -130 0 c-118 0 -130 2 -140 19 -13 25 -13 181 0 215 9 25 11 25 137 28
l128 3 3 124 c1 71 7 130 14 138 15 18 233 19 245 1z m-816 -688 c17 -10 19
-22 19 -133 0 -126 -6 -147 -41 -147 -34 0 -41 26 -40 147 1 98 4 120 18 131
20 15 20 15 44 2z"/>
<path d="M6163 7364 c-81 -40 -52 -164 38 -164 91 0 118 131 34 165 -41 18
-33 18 -72 -1z"/>
<path d="M2268 7360 c-9 -6 -21 -25 -28 -44 -28 -85 68 -152 134 -93 40 34 43
77 11 115 -21 25 -34 32 -63 32 -21 0 -45 -5 -54 -10z"/>
<path d="M5970 7018 c-76 -22 -130 -94 -130 -173 0 -76 59 -159 121 -172 l27
-5 7 -122 c3 -66 5 -164 3 -216 l-3 -95 -37 -3 c-33 -3 -38 -7 -44 -37 -9 -47
9 -75 49 -75 l32 0 0 -195 0 -196 -32 -24 c-60 -48 -79 -149 -38 -212 40 -61
138 -82 203 -43 92 56 96 195 6 253 l-34 22 0 198 0 197 34 0 c43 0 58 19 54
67 -3 37 -4 38 -45 41 l-43 3 0 218 0 218 39 31 c118 95 87 271 -58 320 -40
14 -63 14 -111 0z"/>
<path d="M7380 5213 c-77 -28 -203 -99 -229 -128 -36 -41 -37 -60 -20 -225 14
-126 6 -167 -46 -227 -43 -51 -90 -67 -235 -83 -58 -6 -119 -18 -137 -27 -40
-19 -65 -69 -92 -186 -40 -168 -29 -194 112 -281 144 -88 187 -143 187 -236 0
-52 -16 -95 -66 -172 -112 -175 -112 -198 8 -345 110 -135 124 -139 287 -84
143 49 205 53 272 18 53 -28 89 -79 119 -172 68 -205 74 -210 270 -210 196 0
202 5 270 210 30 93 66 144 119 172 66 35 128 31 273 -18 164 -55 176 -51 287
85 122 151 122 152 -9 373 -85 145 -59 256 83 344 204 126 208 135 166 321
-26 112 -50 163 -87 182 -15 7 -84 21 -154 29 -150 19 -194 37 -239 103 -37
54 -41 100 -25 276 13 147 0 166 -177 248 -62 28 -101 40 -134 40 -44 0 -49
-3 -137 -89 -130 -127 -154 -141 -236 -141 -81 0 -107 15 -225 130 -44 43 -90
83 -102 89 -22 11 -77 14 -103 4z m547 -838 c64 -29 131 -95 164 -160 20 -43
24 -64 24 -145 0 -83 -4 -101 -27 -145 -32 -60 -97 -124 -158 -156 -38 -20
-60 -24 -140 -24 -112 0 -167 22 -237 91 -66 67 -86 114 -91 221 -4 81 -2 97
21 146 80 175 273 249 444 172z"/>
<path d="M7225 2634 c-16 -3 -37 -8 -45 -11 -8 -3 -35 -13 -60 -22 -50 -18
-150 -80 -150 -93 0 -4 -6 -8 -14 -8 -8 0 -24 -12 -35 -27 -12 -16 -26 -35
-33 -43 -53 -62 -96 -149 -104 -212 -4 -29 -11 -58 -16 -65 -12 -15 -5 -137
12 -213 26 -124 172 -295 306 -361 l69 -34 152 0 c158 0 167 2 263 56 8 5 24
13 35 18 35 16 121 106 144 152 11 22 11 31 -2 55 -20 39 -53 67 -106 93 -71
34 -96 29 -148 -29 -25 -28 -57 -53 -71 -56 -15 -4 -33 -11 -40 -17 -17 -14
-120 -13 -135 2 -6 6 -19 11 -30 11 -25 0 -124 96 -150 145 -29 56 -28 156 3
221 23 49 76 114 93 114 5 0 20 9 33 19 32 25 92 35 162 26 51 -6 61 -12 118
-67 62 -59 62 -59 108 -53 26 4 57 16 70 26 13 11 29 19 34 19 11 0 72 66 72
78 0 5 -9 26 -19 49 -27 54 -125 143 -197 177 -32 16 -67 32 -77 38 -20 10
-196 19 -242 12z"/>
<path d="M1971 2584 l-31 -26 0 -480 0 -480 29 -29 c27 -26 36 -29 95 -29 59
0 69 3 101 31 l35 31 0 169 0 169 154 0 c85 0 166 4 179 9 62 24 88 117 52
184 -30 55 -72 67 -234 67 l-142 0 3 68 3 67 197 3 196 2 37 42 c36 40 37 43
32 100 -6 65 -20 88 -72 112 -28 13 -80 16 -318 16 l-285 0 -31 -26z"/>
<path d="M2865 2575 l-35 -36 0 -463 0 -462 29 -34 c28 -34 31 -35 99 -35 65
0 73 3 101 29 l31 30 0 476 0 477 -25 23 c-21 20 -39 25 -96 28 -69 4 -70 4
-104 -33z"/>
<path d="M3317 2602 c-21 -9 -47 -56 -47 -86 0 -13 33 -60 83 -116 45 -52 89
-105 97 -117 8 -12 50 -60 94 -107 l79 -86 -47 -53 c-221 -250 -281 -322 -301
-359 l-19 -37 30 -43 30 -43 100 -3 101 -3 34 39 c19 21 41 49 49 62 8 13 41
54 73 91 31 37 57 72 57 76 1 12 47 63 57 63 12 0 83 -73 83 -85 0 -6 27 -41
61 -80 33 -38 71 -83 85 -100 55 -67 51 -65 147 -65 88 0 89 0 123 34 37 37
44 75 19 96 -8 7 -15 18 -15 24 0 10 -119 149 -195 228 -19 20 -35 39 -35 43
0 4 -20 30 -45 57 -25 28 -45 57 -45 65 0 7 20 36 45 62 25 26 45 52 45 56 0
4 25 31 55 60 30 29 55 56 55 60 0 4 32 42 70 84 81 91 86 111 36 160 l-34 33
-101 -4 c-94 -3 -102 -5 -118 -28 -10 -14 -46 -57 -80 -97 -35 -40 -63 -76
-63 -80 -1 -4 -21 -30 -45 -57 l-44 -50 -40 45 c-22 24 -40 48 -41 52 0 4 -27
40 -60 80 -33 40 -71 87 -86 105 l-26 32 -101 -1 c-56 0 -110 -4 -120 -7z"/>
<path d="M4880 2603 c-33 -12 -60 -47 -60 -78 0 -17 -5 -36 -11 -42 -8 -8 -8
-13 0 -17 6 -4 11 -22 11 -40 0 -22 9 -40 28 -59 26 -25 33 -26 147 -29 l120
-3 3 -335 c1 -203 6 -338 12 -344 6 -6 10 -22 10 -36 0 -15 11 -37 25 -50 22
-20 36 -24 94 -24 60 -1 73 2 95 23 14 14 26 35 26 47 0 13 5 26 10 29 6 4 10
132 10 351 l0 344 107 0 c102 0 108 1 135 27 15 15 28 35 28 44 0 10 5 21 10
24 6 3 10 21 10 40 0 19 -4 37 -10 40 -5 3 -10 14 -10 24 0 10 -12 28 -26 42
l-26 24 -361 2 c-199 1 -369 -1 -377 -4z"/>
<path d="M5852 2576 l-37 -34 0 -466 0 -465 29 -30 30 -31 316 0 c312 0 316 0
346 23 57 41 64 54 65 106 2 61 -25 103 -84 131 -43 21 -131 27 -142 10 -4 -6
-63 -10 -146 -10 l-139 0 0 69 0 69 149 4 c132 3 151 5 171 23 33 30 51 71 52
117 0 32 -6 46 -33 74 l-33 34 -153 0 -153 0 0 70 0 70 213 0 c239 0 242 1
277 72 32 66 27 91 -28 148 l-48 50 -307 0 -307 0 -38 -34z"/>
<path d="M7959 2574 l-34 -35 0 -465 0 -466 37 -34 c35 -32 42 -34 104 -34 63
0 68 2 100 36 l34 35 0 165 0 164 155 0 155 0 0 -154 c0 -137 2 -159 20 -189
25 -43 57 -57 127 -57 51 0 58 3 94 39 l39 39 0 462 0 462 -35 35 c-35 35 -36
35 -105 31 -56 -3 -74 -8 -95 -28 -14 -13 -25 -31 -25 -41 0 -10 -4 -21 -10
-24 -6 -4 -10 -68 -10 -161 l0 -154 -57 0 c-32 0 -102 3 -155 7 l-98 6 0 163
0 163 -34 35 c-32 35 -36 36 -103 36 -66 0 -71 -2 -104 -36z"/>
<path d="M3713 1260 c-75 -15 -173 -102 -173 -152 0 -9 -4 -20 -10 -23 -5 -3
-10 -32 -10 -64 0 -74 25 -126 90 -184 43 -39 59 -47 106 -53 132 -16 228 32
280 142 25 53 33 147 14 159 -5 3 -10 15 -10 26 0 28 -78 109 -125 130 -52 22
-110 29 -162 19z m116 -124 c43 -23 61 -58 61 -119 0 -48 -4 -58 -32 -86 -54
-53 -119 -55 -176 -5 -29 26 -32 33 -32 89 1 52 4 64 29 91 16 17 35 34 42 37
27 11 80 7 108 -7z"/>
<path d="M6312 1260 c-90 -19 -150 -70 -184 -160 -22 -57 -22 -91 1 -158 44
-126 151 -181 306 -155 52 8 158 110 168 162 22 107 5 164 -67 237 -61 60 -64
62 -161 79 -11 2 -39 -1 -63 -5z m145 -153 c36 -40 48 -75 39 -112 -4 -15 -21
-42 -39 -62 -28 -30 -42 -36 -85 -41 -50 -4 -53 -3 -92 36 -36 36 -40 44 -40
92 0 48 4 56 40 92 39 39 42 40 92 36 43 -5 57 -11 85 -41z"/>
<path d="M3028 1253 c-10 -2 -18 -8 -18 -13 0 -4 -9 -10 -19 -13 -28 -7 -53
-62 -53 -115 0 -41 5 -51 40 -84 25 -23 60 -43 95 -53 70 -20 87 -38 62 -65
-23 -26 -71 -26 -110 0 -38 25 -57 25 -79 1 -25 -28 -16 -60 26 -94 33 -26 44
-29 110 -30 53 0 84 5 112 19 69 34 95 117 60 191 -17 35 -43 50 -146 88 -55
19 -65 30 -48 50 16 20 80 19 108 -1 20 -14 24 -14 52 6 42 30 39 61 -8 94
-32 22 -48 26 -103 25 -35 -1 -72 -3 -81 -6z"/>
<path d="M4222 1248 c-19 -19 -17 -432 2 -447 9 -8 66 -11 182 -9 l169 3 3 48
3 47 -118 0 c-79 0 -123 4 -131 12 -8 8 -12 60 -12 168 0 139 -2 159 -18 173
-22 20 -63 22 -80 5z"/>
<path d="M4734 1235 c-15 -22 -16 -46 -11 -168 5 -119 9 -149 28 -185 12 -24
29 -46 38 -50 9 -3 33 -17 54 -30 33 -22 45 -24 100 -19 57 5 116 27 152 57 7
6 23 29 34 51 19 35 21 57 21 192 0 106 -4 157 -12 165 -7 7 -29 12 -49 12
-46 0 -49 -8 -49 -161 0 -135 -11 -168 -67 -194 -46 -22 -79 -12 -110 34 -21
31 -23 45 -23 162 0 70 -3 134 -6 143 -4 11 -19 16 -45 16 -30 0 -42 -5 -55
-25z"/>
<path d="M5299 1233 c-8 -22 -6 -32 9 -52 16 -22 28 -27 76 -29 l56 -3 0 -163
c0 -157 1 -163 23 -184 29 -28 49 -28 73 -1 17 19 19 35 16 185 l-3 164 56 0
c69 0 91 11 100 50 13 57 3 60 -206 60 l-189 0 -11 -27z"/>
<path d="M5862 1248 c-9 -9 -12 -68 -12 -225 l0 -213 25 -16 c32 -21 73 -11
80 19 3 12 4 116 3 232 l-3 210 -40 3 c-23 2 -46 -3 -53 -10z"/>
<path d="M6773 1241 c-9 -15 -13 -75 -13 -203 0 -197 9 -245 46 -254 33 -8 64
5 64 26 0 10 5 22 10 25 14 9 12 99 -2 113 -10 10 -10 17 0 32 6 11 12 29 12
41 0 22 0 22 21 3 12 -10 32 -35 44 -54 31 -48 167 -190 183 -190 7 0 24 11
37 25 l25 24 -6 208 c-5 133 -11 211 -18 215 -6 4 -27 8 -47 8 -45 0 -49 -10
-49 -142 0 -54 -4 -98 -8 -98 -7 0 -108 111 -180 198 -35 43 -100 55 -119 23z"/>
<path d="M7447 1239 c-50 -28 -81 -87 -72 -138 7 -40 54 -101 79 -101 8 0 27
-7 43 -15 15 -8 41 -17 56 -20 35 -7 44 -30 22 -55 -22 -24 -72 -26 -96 -4
-23 21 -99 32 -99 14 0 -8 -7 -21 -15 -30 -15 -16 -12 -21 30 -58 50 -44 104
-58 172 -46 86 15 134 60 140 131 4 50 -19 110 -48 123 -8 4 -24 12 -36 18
-12 7 -40 15 -62 18 -50 8 -80 37 -61 59 17 20 75 19 111 -2 29 -17 30 -17 60
13 34 35 32 51 -13 84 -46 34 -158 38 -211 9z"/>
<path d="M1998 1056 c-27 -20 -24 -72 5 -80 12 -3 112 -6 223 -6 189 0 202 1
219 20 15 16 17 26 9 48 l-9 27 -215 2 c-167 2 -219 0 -232 -11z"/>
<path d="M8246 1054 c-12 -31 -6 -63 13 -74 12 -6 101 -10 219 -10 l200 0 17
26 c16 25 16 27 -6 50 -22 24 -24 24 -230 24 -179 0 -208 -2 -213 -16z"/>
</g>
</svg>
